<mxfile host="app.diagrams.net" modified="2024-04-19T13:37:09.688Z" agent="Mozilla/5.0 (Windows NT 10.0; Win64; x64) AppleWebKit/537.36 (KHTML, like Gecko) Chrome/124.0.0.0 Safari/537.36" etag="3Voy1Gzdl_MWg-Qhj4JN" version="24.2.1" type="github">
  <diagram name="PÃ¡gina-1" id="FCvRIkQGOwNSa70oRGv-">
    <mxGraphModel dx="2427" dy="657" grid="1" gridSize="10" guides="1" tooltips="1" connect="1" arrows="1" fold="1" page="1" pageScale="1" pageWidth="827" pageHeight="1169" math="0" shadow="0">
      <root>
        <mxCell id="0" />
        <mxCell id="1" parent="0" />
        <mxCell id="-YND1BBf8u0pHEsJhsr5-6" style="edgeStyle=orthogonalEdgeStyle;rounded=0;orthogonalLoop=1;jettySize=auto;html=1;entryX=0.5;entryY=1;entryDx=0;entryDy=0;dashed=1;" edge="1" parent="1" source="-YND1BBf8u0pHEsJhsr5-1" target="-YND1BBf8u0pHEsJhsr5-2">
          <mxGeometry relative="1" as="geometry" />
        </mxCell>
        <mxCell id="-YND1BBf8u0pHEsJhsr5-19" style="edgeStyle=orthogonalEdgeStyle;rounded=0;orthogonalLoop=1;jettySize=auto;html=1;entryX=0;entryY=0.5;entryDx=0;entryDy=0;" edge="1" parent="1" source="-YND1BBf8u0pHEsJhsr5-1" target="-YND1BBf8u0pHEsJhsr5-18">
          <mxGeometry relative="1" as="geometry" />
        </mxCell>
        <mxCell id="-YND1BBf8u0pHEsJhsr5-1" value="REGISTER" style="rounded=1;whiteSpace=wrap;html=1;" vertex="1" parent="1">
          <mxGeometry x="200" y="200" width="120" height="40" as="geometry" />
        </mxCell>
        <mxCell id="-YND1BBf8u0pHEsJhsr5-20" style="edgeStyle=orthogonalEdgeStyle;rounded=0;orthogonalLoop=1;jettySize=auto;html=1;entryX=0;entryY=0.5;entryDx=0;entryDy=0;" edge="1" parent="1" source="-YND1BBf8u0pHEsJhsr5-2" target="-YND1BBf8u0pHEsJhsr5-18">
          <mxGeometry relative="1" as="geometry" />
        </mxCell>
        <mxCell id="-YND1BBf8u0pHEsJhsr5-2" value="LOGIN" style="rounded=1;whiteSpace=wrap;html=1;" vertex="1" parent="1">
          <mxGeometry x="200" y="40" width="120" height="40" as="geometry" />
        </mxCell>
        <mxCell id="-YND1BBf8u0pHEsJhsr5-3" value="&amp;lt;&amp;lt;EXTEND&amp;gt;&amp;gt;" style="text;html=1;align=center;verticalAlign=middle;whiteSpace=wrap;rounded=0;rotation=-90;" vertex="1" parent="1">
          <mxGeometry x="230" y="130" width="90" height="40" as="geometry" />
        </mxCell>
        <mxCell id="-YND1BBf8u0pHEsJhsr5-10" style="edgeStyle=orthogonalEdgeStyle;rounded=0;orthogonalLoop=1;jettySize=auto;html=1;entryX=0;entryY=0.5;entryDx=0;entryDy=0;" edge="1" parent="1" target="-YND1BBf8u0pHEsJhsr5-2">
          <mxGeometry relative="1" as="geometry">
            <mxPoint x="60" y="140" as="sourcePoint" />
            <Array as="points">
              <mxPoint x="60" y="141" />
              <mxPoint x="160" y="141" />
              <mxPoint x="160" y="60" />
            </Array>
          </mxGeometry>
        </mxCell>
        <mxCell id="-YND1BBf8u0pHEsJhsr5-11" style="edgeStyle=orthogonalEdgeStyle;rounded=0;orthogonalLoop=1;jettySize=auto;html=1;entryX=0;entryY=0.5;entryDx=0;entryDy=0;" edge="1" parent="1" target="-YND1BBf8u0pHEsJhsr5-1">
          <mxGeometry relative="1" as="geometry">
            <mxPoint x="60" y="140" as="sourcePoint" />
            <Array as="points">
              <mxPoint x="60" y="141" />
              <mxPoint x="160" y="141" />
              <mxPoint x="160" y="220" />
            </Array>
          </mxGeometry>
        </mxCell>
        <mxCell id="-YND1BBf8u0pHEsJhsr5-24" style="edgeStyle=orthogonalEdgeStyle;rounded=0;orthogonalLoop=1;jettySize=auto;html=1;dashed=1;" edge="1" parent="1" source="-YND1BBf8u0pHEsJhsr5-18" target="-YND1BBf8u0pHEsJhsr5-21">
          <mxGeometry relative="1" as="geometry" />
        </mxCell>
        <mxCell id="-YND1BBf8u0pHEsJhsr5-29" style="edgeStyle=orthogonalEdgeStyle;rounded=0;orthogonalLoop=1;jettySize=auto;html=1;entryX=0;entryY=0.25;entryDx=0;entryDy=0;dashed=1;" edge="1" parent="1" source="-YND1BBf8u0pHEsJhsr5-18" target="-YND1BBf8u0pHEsJhsr5-26">
          <mxGeometry relative="1" as="geometry">
            <Array as="points">
              <mxPoint x="600" y="140" />
              <mxPoint x="600" y="290" />
            </Array>
          </mxGeometry>
        </mxCell>
        <mxCell id="-YND1BBf8u0pHEsJhsr5-36" style="edgeStyle=orthogonalEdgeStyle;rounded=0;orthogonalLoop=1;jettySize=auto;html=1;dashed=1;" edge="1" parent="1" source="-YND1BBf8u0pHEsJhsr5-18" target="-YND1BBf8u0pHEsJhsr5-35">
          <mxGeometry relative="1" as="geometry" />
        </mxCell>
        <mxCell id="-YND1BBf8u0pHEsJhsr5-18" value="ACCESS SYSTEM" style="rounded=1;whiteSpace=wrap;html=1;" vertex="1" parent="1">
          <mxGeometry x="400" y="120" width="120" height="40" as="geometry" />
        </mxCell>
        <mxCell id="-YND1BBf8u0pHEsJhsr5-28" style="edgeStyle=orthogonalEdgeStyle;rounded=0;orthogonalLoop=1;jettySize=auto;html=1;dashed=1;" edge="1" parent="1" source="-YND1BBf8u0pHEsJhsr5-21" target="-YND1BBf8u0pHEsJhsr5-26">
          <mxGeometry relative="1" as="geometry" />
        </mxCell>
        <mxCell id="-YND1BBf8u0pHEsJhsr5-45" style="edgeStyle=orthogonalEdgeStyle;rounded=0;orthogonalLoop=1;jettySize=auto;html=1;entryX=1;entryY=0.75;entryDx=0;entryDy=0;" edge="1" parent="1" source="-YND1BBf8u0pHEsJhsr5-21" target="-YND1BBf8u0pHEsJhsr5-38">
          <mxGeometry relative="1" as="geometry">
            <mxPoint x="550" y="500" as="targetPoint" />
            <Array as="points">
              <mxPoint x="850" y="140" />
              <mxPoint x="850" y="550" />
            </Array>
          </mxGeometry>
        </mxCell>
        <mxCell id="-YND1BBf8u0pHEsJhsr5-21" value="ADD NEW MATERIAL" style="rounded=1;whiteSpace=wrap;html=1;" vertex="1" parent="1">
          <mxGeometry x="680" y="120" width="120" height="40" as="geometry" />
        </mxCell>
        <mxCell id="-YND1BBf8u0pHEsJhsr5-22" value="&amp;lt;&amp;lt;INCLUDE&amp;gt;&amp;gt;" style="text;html=1;align=center;verticalAlign=middle;resizable=0;points=[];autosize=1;strokeColor=none;fillColor=none;rotation=0;" vertex="1" parent="1">
          <mxGeometry x="320" y="30" width="100" height="30" as="geometry" />
        </mxCell>
        <mxCell id="-YND1BBf8u0pHEsJhsr5-23" value="&amp;lt;&amp;lt;INCLUDE&amp;gt;&amp;gt;" style="text;html=1;align=center;verticalAlign=middle;resizable=0;points=[];autosize=1;strokeColor=none;fillColor=none;rotation=0;" vertex="1" parent="1">
          <mxGeometry x="320" y="220" width="100" height="30" as="geometry" />
        </mxCell>
        <mxCell id="-YND1BBf8u0pHEsJhsr5-25" value="&amp;lt;&amp;lt;EXTEND&amp;gt;&amp;gt;" style="text;html=1;align=center;verticalAlign=middle;resizable=0;points=[];autosize=1;strokeColor=none;fillColor=none;" vertex="1" parent="1">
          <mxGeometry x="550" y="110" width="100" height="30" as="geometry" />
        </mxCell>
        <mxCell id="-YND1BBf8u0pHEsJhsr5-33" style="edgeStyle=orthogonalEdgeStyle;rounded=0;orthogonalLoop=1;jettySize=auto;html=1;entryX=0.5;entryY=0;entryDx=0;entryDy=0;dashed=1;" edge="1" parent="1" source="-YND1BBf8u0pHEsJhsr5-26" target="-YND1BBf8u0pHEsJhsr5-32">
          <mxGeometry relative="1" as="geometry" />
        </mxCell>
        <mxCell id="-YND1BBf8u0pHEsJhsr5-41" style="edgeStyle=orthogonalEdgeStyle;rounded=0;orthogonalLoop=1;jettySize=auto;html=1;entryX=1;entryY=0.25;entryDx=0;entryDy=0;dashed=1;" edge="1" parent="1" source="-YND1BBf8u0pHEsJhsr5-26" target="-YND1BBf8u0pHEsJhsr5-38">
          <mxGeometry relative="1" as="geometry">
            <Array as="points">
              <mxPoint x="600" y="310" />
              <mxPoint x="600" y="530" />
            </Array>
          </mxGeometry>
        </mxCell>
        <mxCell id="-YND1BBf8u0pHEsJhsr5-26" value="VIEW MATERIAL" style="rounded=1;whiteSpace=wrap;html=1;" vertex="1" parent="1">
          <mxGeometry x="680" y="280" width="120" height="40" as="geometry" />
        </mxCell>
        <mxCell id="-YND1BBf8u0pHEsJhsr5-30" value="&amp;lt;&amp;lt;EXTEND&amp;gt;&amp;gt;" style="text;html=1;align=center;verticalAlign=middle;resizable=0;points=[];autosize=1;strokeColor=none;fillColor=none;rotation=-90;" vertex="1" parent="1">
          <mxGeometry x="570" y="205" width="100" height="30" as="geometry" />
        </mxCell>
        <mxCell id="-YND1BBf8u0pHEsJhsr5-31" value="&amp;lt;&amp;lt;EXTEND&amp;gt;&amp;gt;" style="text;html=1;align=center;verticalAlign=middle;resizable=0;points=[];autosize=1;strokeColor=none;fillColor=none;rotation=-90;" vertex="1" parent="1">
          <mxGeometry x="710" y="205" width="100" height="30" as="geometry" />
        </mxCell>
        <mxCell id="-YND1BBf8u0pHEsJhsr5-42" style="edgeStyle=orthogonalEdgeStyle;rounded=0;orthogonalLoop=1;jettySize=auto;html=1;exitX=0.5;exitY=1;exitDx=0;exitDy=0;" edge="1" parent="1" source="-YND1BBf8u0pHEsJhsr5-32">
          <mxGeometry relative="1" as="geometry">
            <mxPoint x="520" y="540" as="targetPoint" />
            <Array as="points">
              <mxPoint x="740" y="540" />
              <mxPoint x="520" y="540" />
            </Array>
          </mxGeometry>
        </mxCell>
        <mxCell id="-YND1BBf8u0pHEsJhsr5-32" value="MODIFY MATERIAL" style="rounded=1;whiteSpace=wrap;html=1;" vertex="1" parent="1">
          <mxGeometry x="680" y="440" width="120" height="40" as="geometry" />
        </mxCell>
        <mxCell id="-YND1BBf8u0pHEsJhsr5-34" value="&amp;lt;&amp;lt;EXTEND&amp;gt;&amp;gt;" style="text;html=1;align=center;verticalAlign=middle;resizable=0;points=[];autosize=1;strokeColor=none;fillColor=none;rotation=-90;" vertex="1" parent="1">
          <mxGeometry x="710" y="370" width="100" height="30" as="geometry" />
        </mxCell>
        <mxCell id="-YND1BBf8u0pHEsJhsr5-39" style="edgeStyle=orthogonalEdgeStyle;rounded=0;orthogonalLoop=1;jettySize=auto;html=1;" edge="1" parent="1" source="-YND1BBf8u0pHEsJhsr5-35" target="-YND1BBf8u0pHEsJhsr5-38">
          <mxGeometry relative="1" as="geometry" />
        </mxCell>
        <mxCell id="-YND1BBf8u0pHEsJhsr5-35" value="ASK AI" style="rounded=1;whiteSpace=wrap;html=1;" vertex="1" parent="1">
          <mxGeometry x="400" y="360" width="120" height="40" as="geometry" />
        </mxCell>
        <mxCell id="-YND1BBf8u0pHEsJhsr5-37" value="&amp;lt;&amp;lt;EXTEND&amp;gt;&amp;gt;" style="text;html=1;align=center;verticalAlign=middle;resizable=0;points=[];autosize=1;strokeColor=none;fillColor=none;rotation=-90;" vertex="1" parent="1">
          <mxGeometry x="430" y="250" width="100" height="30" as="geometry" />
        </mxCell>
        <mxCell id="-YND1BBf8u0pHEsJhsr5-38" value="FEEDBACK AI" style="rounded=1;whiteSpace=wrap;html=1;" vertex="1" parent="1">
          <mxGeometry x="400" y="520" width="120" height="40" as="geometry" />
        </mxCell>
        <mxCell id="-YND1BBf8u0pHEsJhsr5-40" value="&amp;lt;&amp;lt;INCLUDE&amp;gt;&amp;gt;" style="text;html=1;align=center;verticalAlign=middle;resizable=0;points=[];autosize=1;strokeColor=none;fillColor=none;rotation=-91;" vertex="1" parent="1">
          <mxGeometry x="430" y="445" width="100" height="30" as="geometry" />
        </mxCell>
        <mxCell id="-YND1BBf8u0pHEsJhsr5-43" value="&amp;lt;&amp;lt;EXTEND&amp;gt;&amp;gt;" style="text;html=1;align=center;verticalAlign=middle;resizable=0;points=[];autosize=1;strokeColor=none;fillColor=none;rotation=-90;" vertex="1" parent="1">
          <mxGeometry x="570" y="370" width="100" height="30" as="geometry" />
        </mxCell>
        <mxCell id="-YND1BBf8u0pHEsJhsr5-44" value="&amp;lt;&amp;lt;INCLUDE&amp;gt;&amp;gt;" style="text;html=1;align=center;verticalAlign=middle;resizable=0;points=[];autosize=1;strokeColor=none;fillColor=none;" vertex="1" parent="1">
          <mxGeometry x="640" y="510" width="100" height="30" as="geometry" />
        </mxCell>
        <mxCell id="-YND1BBf8u0pHEsJhsr5-46" value="&amp;lt;&amp;lt;INCLUDE&amp;gt;&amp;gt;" style="text;html=1;align=center;verticalAlign=middle;resizable=0;points=[];autosize=1;strokeColor=none;fillColor=none;" vertex="1" parent="1">
          <mxGeometry x="750" y="520" width="100" height="30" as="geometry" />
        </mxCell>
        <mxCell id="-YND1BBf8u0pHEsJhsr5-47" value="MODIFY USER ACCOUNT" style="rounded=1;whiteSpace=wrap;html=1;" vertex="1" parent="1">
          <mxGeometry x="200" y="360" width="120" height="40" as="geometry" />
        </mxCell>
        <mxCell id="-YND1BBf8u0pHEsJhsr5-50" value="USER" style="shape=umlActor;verticalLabelPosition=bottom;verticalAlign=top;html=1;outlineConnect=0;" vertex="1" parent="1">
          <mxGeometry x="10" y="100" width="30" height="60" as="geometry" />
        </mxCell>
        <mxCell id="-YND1BBf8u0pHEsJhsr5-52" style="edgeStyle=orthogonalEdgeStyle;rounded=0;orthogonalLoop=1;jettySize=auto;html=1;" edge="1" parent="1" source="-YND1BBf8u0pHEsJhsr5-51" target="-YND1BBf8u0pHEsJhsr5-47">
          <mxGeometry relative="1" as="geometry" />
        </mxCell>
        <mxCell id="-YND1BBf8u0pHEsJhsr5-57" style="edgeStyle=orthogonalEdgeStyle;rounded=0;orthogonalLoop=1;jettySize=auto;html=1;" edge="1" parent="1" source="-YND1BBf8u0pHEsJhsr5-51" target="-YND1BBf8u0pHEsJhsr5-50">
          <mxGeometry relative="1" as="geometry" />
        </mxCell>
        <mxCell id="-YND1BBf8u0pHEsJhsr5-51" value="ADMIN" style="shape=umlActor;verticalLabelPosition=bottom;verticalAlign=top;html=1;outlineConnect=0;" vertex="1" parent="1">
          <mxGeometry x="10" y="350" width="30" height="60" as="geometry" />
        </mxCell>
        <mxCell id="-YND1BBf8u0pHEsJhsr5-56" style="edgeStyle=orthogonalEdgeStyle;rounded=0;orthogonalLoop=1;jettySize=auto;html=1;" edge="1" parent="1" source="-YND1BBf8u0pHEsJhsr5-55" target="-YND1BBf8u0pHEsJhsr5-50">
          <mxGeometry relative="1" as="geometry">
            <Array as="points">
              <mxPoint x="-75" y="270" />
              <mxPoint x="25" y="270" />
            </Array>
          </mxGeometry>
        </mxCell>
        <mxCell id="-YND1BBf8u0pHEsJhsr5-55" value="COMMON USER" style="shape=umlActor;verticalLabelPosition=bottom;verticalAlign=top;html=1;outlineConnect=0;" vertex="1" parent="1">
          <mxGeometry x="-90" y="350" width="30" height="60" as="geometry" />
        </mxCell>
        <mxCell id="-YND1BBf8u0pHEsJhsr5-59" value="" style="swimlane;startSize=0;" vertex="1" parent="1">
          <mxGeometry x="120" width="760" height="600" as="geometry" />
        </mxCell>
      </root>
    </mxGraphModel>
  </diagram>
</mxfile>
